<?xml version="1.0" encoding="UTF-8" standalone="no"?>
<!-- Created with Inkscape (http://www.inkscape.org/) -->

<svg
   xmlns:dc="http://purl.org/dc/elements/1.1/"
   xmlns:cc="http://creativecommons.org/ns#"
   xmlns:rdf="http://www.w3.org/1999/02/22-rdf-syntax-ns#"
   xmlns:svg="http://www.w3.org/2000/svg"
   xmlns="http://www.w3.org/2000/svg"
   xmlns:sodipodi="http://sodipodi.sourceforge.net/DTD/sodipodi-0.dtd"
   xmlns:inkscape="http://www.inkscape.org/namespaces/inkscape"
   width="192"
   height="192"
   viewBox="0 0 192 192"
   id="svg3378"
   version="1.1"
   inkscape:version="0.91 r13725"
   sodipodi:docname="icon-leaf.svg">
  <defs
     id="defs3380">
    <filter
       inkscape:collect="always"
       style="color-interpolation-filters:sRGB"
       id="filter4339"
       x="-0.047999997"
       width="1.096"
       y="-0.048000003"
       height="1.096">
      <feGaussianBlur
         inkscape:collect="always"
         stdDeviation="2.3999999"
         id="feGaussianBlur4341" />
    </filter>
  </defs>
  <sodipodi:namedview
     id="base"
     pagecolor="#ffffff"
     bordercolor="#666666"
     borderopacity="1.0"
     inkscape:pageopacity="0.0"
     inkscape:pageshadow="2"
     inkscape:zoom="0.98994949"
     inkscape:cx="-26.612534"
     inkscape:cy="108.81995"
     inkscape:document-units="px"
     inkscape:current-layer="layer1"
     showgrid="false"
     units="px"
     inkscape:showpageshadow="false"
     inkscape:window-width="1440"
     inkscape:window-height="797"
     inkscape:window-x="0"
     inkscape:window-y="0"
     inkscape:window-maximized="1">
    <inkscape:grid
       type="xygrid"
       id="grid3386"
       spacingx="4"
       spacingy="4"
       empspacing="4" />
  </sodipodi:namedview>
  <metadata
     id="metadata3383">
    <rdf:RDF>
      <cc:Work
         rdf:about="">
        <dc:format>image/svg+xml</dc:format>
        <dc:type
           rdf:resource="http://purl.org/dc/dcmitype/StillImage" />
        <dc:title></dc:title>
      </cc:Work>
    </rdf:RDF>
  </metadata>
  <g
     inkscape:label="Layer 1"
     inkscape:groupmode="layer"
     id="layer1"
     transform="translate(0,-860.36216)"
     style="display:inline">
    <circle
       style="fill:#cddc39;fill-opacity:1;fill-rule:evenodd;stroke:none;stroke-width:1.32572687px;stroke-linecap:butt;stroke-linejoin:miter;stroke-opacity:1"
       id="path3388"
       cx="96"
       cy="956.36218"
       r="88" />
  </g>
  <g
     inkscape:groupmode="layer"
     id="layer6"
     inkscape:label="main shadow"
     style="display:inline">
    <path
       d="m 45.855289,154.3411 13.56823,-13.3155 c 20.806421,4.6047 39.279531,2.3508 54.893331,-6.88488 28.51217,-16.85284 36.92375,-50.501111 37.26543,-51.921311 0.57097,-2.35971 -0.44508,-4.82522 -2.54011,-6.1087 -1.05651,-0.65276 -2.27036,-0.93063 -3.46623,-0.85123 9.22981,-15.516397 10.36274,-30.993097 10.4122,-31.861977 0.18882,-2.90657 -1.89722,-5.46911 -4.81498,-5.94987 -31.74911,-5.169185 -57.33004,3.51963 -76.20327,25.83714 -0.535,-0.80714 -1.29478,-1.46872 -2.19394,-1.92301 -1.97364,-0.98356 -4.34741,-0.77626 -6.109751,0.5425 -26.79028,19.988757 -22.71262,53.601748 -15.87905,71.565988 l -13.09618,12.85245 c -2.25238,2.2097 -2.25687,5.7911 0,8.0052 2.25238,2.2273 5.90744,2.2273 8.16432,0.013 z"
       id="path7-8"
       inkscape:connector-curvature="0"
       style="display:inline;fill:#ffab91;fill-opacity:1;stroke:none;filter:url(#filter4339)"
       sodipodi:nodetypes="cccccccccccccccc"
       transform="matrix(1.0268821,0,0,1.0268821,-3.3382966,-1.8230678)" />
  </g>
  <g
     inkscape:groupmode="layer"
     id="layer5"
     inkscape:label="main tint"
     style="display:inline">
    <path
       d="m 45.855289,154.3411 13.56823,-13.3155 c 20.80642,4.6047 39.27953,2.3508 54.893331,-6.88488 28.51217,-16.85284 36.92375,-50.501114 37.26543,-51.921314 0.57097,-2.35971 -0.44508,-4.82522 -2.54011,-6.1087 -1.05651,-0.65276 -2.27036,-0.93063 -3.46623,-0.85123 9.22981,-15.5164 10.36274,-30.993097 10.4122,-31.861977 0.18882,-2.90657 -1.89722,-5.46911 -4.81498,-5.94987 -31.74911,-5.169185 -57.330041,3.51963 -76.203271,25.837137 -0.535,-0.80714 -1.29478,-1.46872 -2.19394,-1.92301 -1.97364,-0.98356 -4.34741,-0.77626 -6.10975,0.5425 -26.79028,19.98876 -22.71262,53.601754 -15.87905,71.565994 l -13.09618,12.85245 c -2.25238,2.2097 -2.25687,5.7911 0,8.0052 2.25238,2.2273 5.90744,2.2273 8.16432,0.013 z"
       id="path7-2"
       inkscape:connector-curvature="0"
       style="display:inline;fill:#e35722;fill-opacity:1;stroke:none"
       sodipodi:nodetypes="cccccccccccccccc" />
  </g>
  <g
     inkscape:groupmode="layer"
     id="layer4"
     inkscape:label="main"
     style="display:inline">
    <path
       d="m 45.855289,150.3411 13.56823,-13.3155 c 20.80642,4.6047 39.27953,2.3508 54.893331,-6.88488 28.51217,-16.85284 36.92375,-50.501108 37.26543,-51.921308 0.57097,-2.35971 -0.44508,-4.82522 -2.54011,-6.1087 -1.05651,-0.65276 -2.27036,-0.93063 -3.46623,-0.85123 9.22981,-15.5164 10.36274,-30.9931 10.4122,-31.86198 0.18882,-2.90657 -1.89722,-5.46911 -4.81498,-5.94987 -31.74911,-5.169185 -57.330041,3.51963 -76.203271,25.83714 -0.535,-0.80714 -1.29478,-1.46872 -2.19394,-1.92301 -1.97364,-0.98356 -4.34741,-0.77626 -6.10975,0.5425 -26.79028,19.98876 -22.71262,53.601748 -15.87905,71.565988 l -13.09618,12.85245 c -2.25238,2.2097 -2.25687,5.7911 0,8.0052 2.25238,2.2273 5.90744,2.2273 8.16432,0.013 z"
       id="path7"
       inkscape:connector-curvature="0"
       style="display:inline;fill:#ff5722;fill-opacity:1;stroke:none"
       sodipodi:nodetypes="cccccccccccccccc" />
  </g>
</svg>
