<?xml version="1.0" encoding="UTF-8" standalone="no"?>
<!-- Created with Inkscape (http://www.inkscape.org/) -->

<svg
   xmlns:dc="http://purl.org/dc/elements/1.1/"
   xmlns:cc="http://creativecommons.org/ns#"
   xmlns:rdf="http://www.w3.org/1999/02/22-rdf-syntax-ns#"
   xmlns:svg="http://www.w3.org/2000/svg"
   xmlns="http://www.w3.org/2000/svg"
   xmlns:xlink="http://www.w3.org/1999/xlink"
   xmlns:sodipodi="http://sodipodi.sourceforge.net/DTD/sodipodi-0.dtd"
   xmlns:inkscape="http://www.inkscape.org/namespaces/inkscape"
   width="192"
   height="192"
   id="svg2"
   version="1.1"
   inkscape:version="0.48.4 r9939"
   inkscape:export-filename="/home/vorobyev/tmp/tegmine_768.png"
   inkscape:export-xdpi="360"
   inkscape:export-ydpi="360"
   sodipodi:docname="New document 1">
  <defs
     id="defs4">
    <linearGradient
       id="linearGradient4732">
      <stop
         style="stop-color:#ffffff;stop-opacity:0.09482758;"
         offset="0"
         id="stop4734" />
      <stop
         style="stop-color:#ffffff;stop-opacity:0;"
         offset="1"
         id="stop4736" />
    </linearGradient>
    <filter
       id="f"
       color-interpolation-filters="sRGB">
      <feGaussianBlur
         stdDeviation="12.375"
         id="feGaussianBlur3859" />
    </filter>
    <path
       id="d"
       d="m 450,200 c 0,27.61424 -22.38576,50 -50,50 -27.61424,0 -50,-22.38576 -50,-50 0,-27.61424 22.38576,-50 50,-50 27.61424,0 50,22.38576 50,50 z" />
    <path
       id="y"
       d="m 425,25 c 110.4,0 200,89.6 200,200 0,110.4 -89.6,200 -200,200 -110.4,0 -200,89.6 -200,200 0,110.4 89.6,200 200,200 C 645.8,825 825,645.8 825,425 825,204.2 645.8,25 425,25 z m 0,537.5 c 34.5,0 62.5,28 62.5,62.5 0,34.5 -28,62.5 -62.5,62.5 -34.5,0 -62.5,-28 -62.5,-62.5 0,-34.5 28,-62.5 62.5,-62.5 z" />
    <filter
       inkscape:collect="always"
       id="filter4725"
       x="-0.18615091"
       width="1.3723018"
       y="-0.19803288"
       height="1.3960658">
      <feGaussianBlur
         inkscape:collect="always"
         stdDeviation="6.0595998"
         id="feGaussianBlur4727" />
    </filter>
    <linearGradient
       inkscape:collect="always"
       xlink:href="#linearGradient4732"
       id="linearGradient4738"
       x1="20"
       y1="19.4375"
       x2="173.5625"
       y2="172.5625"
       gradientUnits="userSpaceOnUse" />
  </defs>
  <sodipodi:namedview
     id="base"
     pagecolor="#ffffff"
     bordercolor="#666666"
     borderopacity="1.0"
     inkscape:pageopacity="0.0"
     inkscape:pageshadow="2"
     inkscape:zoom="0.64"
     inkscape:cx="-38.337137"
     inkscape:cy="-42.470351"
     inkscape:document-units="px"
     inkscape:current-layer="layer5"
     showgrid="false"
     inkscape:window-width="1173"
     inkscape:window-height="631"
     inkscape:window-x="592"
     inkscape:window-y="390"
     inkscape:window-maximized="0">
    <inkscape:grid
       type="xygrid"
       id="grid2985"
       empspacing="4"
       dotted="true"
       visible="true"
       enabled="true"
       snapvisiblegridlinesonly="true"
       spacingx="4px"
       spacingy="4px" />
  </sodipodi:namedview>
  <metadata
     id="metadata7">
    <rdf:RDF>
      <cc:Work
         rdf:about="">
        <dc:format>image/svg+xml</dc:format>
        <dc:type
           rdf:resource="http://purl.org/dc/dcmitype/StillImage" />
        <dc:title></dc:title>
      </cc:Work>
    </rdf:RDF>
  </metadata>
  <g
     transform="translate(0,-860.36218)"
     id="g3761"
     inkscape:groupmode="layer"
     inkscape:label="bg_tint"
     style="display:inline">
    <rect
       y="884.36218"
       x="20"
       height="152"
       width="152"
       id="rect3763"
       style="fill:#90a4ae;fill-opacity:1;stroke:none"
       rx="16"
       ry="16" />
  </g>
  <g
     inkscape:label="bg_main"
     inkscape:groupmode="layer"
     id="layer1"
     transform="translate(0,-860.36218)"
     style="display:inline">
    <rect
       style="fill:#607d8b;fill-opacity:1;stroke:none"
       id="rect3759"
       width="152"
       height="152"
       x="20"
       y="880.36218"
       rx="16"
       ry="16" />
  </g>
  <g
     inkscape:label="sign_shadow"
     id="g4589"
     inkscape:groupmode="layer"
     style="display:inline">
    <path
       transform="matrix(0.8192,0,0,0.87148936,25.6,14.37617)"
       d="m 125,98.25 a 39.0625,36.71875 0 1 1 -78.125,0 39.0625,36.71875 0 1 1 78.125,0 z"
       sodipodi:ry="36.71875"
       sodipodi:rx="39.0625"
       sodipodi:cy="98.25"
       sodipodi:cx="85.9375"
       id="path4591"
       style="fill:#bdbdbd;fill-opacity:1;stroke:none;filter:url(#filter4725)"
       sodipodi:type="arc" />
  </g>
  <g
     inkscape:groupmode="layer"
     id="layer4"
     inkscape:label="sign_tint"
     style="display:inline">
    <path
       sodipodi:type="arc"
       style="fill:#eeeeee;fill-opacity:1;stroke:none"
       id="path4587"
       sodipodi:cx="85.9375"
       sodipodi:cy="98.25"
       sodipodi:rx="39.0625"
       sodipodi:ry="36.71875"
       d="m 125,98.25 a 39.0625,36.71875 0 1 1 -78.125,0 39.0625,36.71875 0 1 1 78.125,0 z"
       transform="matrix(0.8192,0,0,0.87148936,25.6,14.37617)" />
  </g>
  <g
     inkscape:groupmode="layer"
     id="layer3"
     inkscape:label="sign"
     style="display:inline">
    <g
       id="g3863"
       transform="matrix(0.18076414,0,0,0.18076413,54.061655,20.191353)">
      <g
         id="g3867"
         transform="matrix(-0.44256567,0,0,-0.44256567,184.58986,572.6408)">
        <g
           style="fill:#000000"
           id="g3869"
           transform="matrix(-1,0,0,-1,825,825)" />
        <g
           style="fill:#ffffff"
           id="g3875">
          <g
             id="g3965">
            <use
               xlink:href="#y"
               height="250"
               width="250"
               y="0"
               x="0"
               style="fill:#000000"
               id="use3871"
               transform="matrix(-1,0,0,-1,317.86102,771.30339)" />
            <use
               xlink:href="#d"
               height="250"
               width="250"
               y="0"
               x="0"
               style="fill:#000000"
               id="use3873"
               transform="matrix(-1.25,0,0,-1.25,392.86101,796.30339)" />
            <use
               xlink:href="#y"
               height="250"
               width="250"
               y="0"
               x="0"
               id="use3877"
               transform="translate(-532.13899,-78.696611)" />
            <use
               xlink:href="#d"
               height="250"
               width="250"
               y="0"
               x="0"
               id="use3879"
               transform="matrix(1.25,0,0,-1.25,-607.13899,396.30339)" />
          </g>
        </g>
      </g>
    </g>
  </g>
  <g
     inkscape:groupmode="layer"
     id="layer5"
     inkscape:label="finishing"
     style="display:none">
    <rect
       style="fill:url(#linearGradient4738);fill-opacity:1;stroke:none"
       id="rect4730"
       width="152"
       height="152"
       x="20"
       y="20"
       rx="16"
       ry="16" />
  </g>
</svg>
